<svg xmlns="http://www.w3.org/2000/svg" xmlns:xlink="http://www.w3.org/1999/xlink" width="392" height="108" viewBox="0 0 392 108">
  <defs>
    <polygon id="beanstack-logo-a" points=".16 .048 19.323 .048 19.323 13.94 .16 13.94"/>
    <polygon id="beanstack-logo-c" points=".06 .662 23.054 .662 23.054 15.763 .06 15.763"/>
    <polygon id="beanstack-logo-e" points=".75 .824 13.379 .824 13.379 23.393 .75 23.393"/>
  </defs>
  <g fill="none" fill-rule="evenodd">
    <path fill="#F4B549" d="M44.987,38.675 C44.987,38.675 39.612,32.259 32.987,37.884 C25.185,44.509 26.178,57.813 49.019,86.806 C49.585,87.523 50.675,87.665 50.378,86.196 C49.54,82.051 49.185,74.138 57.362,66.759 C67.613,57.509 79.799,42.045 71.987,31.009 C64.112,19.884 48.987,26.591 44.987,38.675"/>
    <path fill="#32B7C4" d="M74.166,58.483 C74.09,58.529 73.417,58.851 72.847,59.731 C72.336,60.521 72.259,61.362 72.246,61.448 C72.036,62.987 72.394,65.283 75.449,67.258 C79.541,69.903 84.328,70.434 86.514,69.921 C86.551,69.912 86.586,69.901 86.619,69.89 C86.973,69.779 87.293,69.553 87.51,69.218 C87.733,68.872 87.808,68.479 87.754,68.103 C87.753,68.077 87.748,68.05 87.743,68.022 C87.314,65.817 84.868,61.668 80.778,59.021 C77.723,57.045 75.481,57.659 74.166,58.483"/>
    <path fill="#E15E35" d="M81.923,74.91 C81.877,74.928 81.47,75.029 81.059,75.449 C80.691,75.826 80.554,76.278 80.539,76.325 C80.251,77.147 80.191,78.447 81.648,79.874 C83.602,81.782 86.171,82.608 87.429,82.57 C87.45,82.568 87.47,82.568 87.489,82.564 C87.696,82.544 87.898,82.455 88.055,82.295 C88.215,82.13 88.3,81.923 88.314,81.71 C88.315,81.697 88.316,81.681 88.315,81.664 C88.325,80.406 87.446,77.854 85.494,75.945 C84.036,74.519 82.737,74.605 81.923,74.91"/>
    <path fill="#32B7C4" d="M67.282 69.944C67.223 69.962 66.705 70.037 66.144 70.51 65.641 70.936 65.418 71.482 65.392 71.537 64.936 72.524 64.705 74.135 66.346 76.082 68.545 78.689 71.641 80.025 73.209 80.129 73.234 80.129 73.259 80.129 73.285 80.128 73.544 80.127 73.805 80.04 74.02 79.86 74.239 79.674 74.37 79.428 74.412 79.165 74.415 79.149 74.418 79.127 74.419 79.108 74.583 77.545 73.795 74.268 71.598 71.661 69.957 69.711 68.332 69.663 67.282 69.944M69.446 84.485C69.368 84.494 68.702 84.467 67.888 84.928 67.158 85.341 66.752 85.975 66.707 86.039 65.905 87.169 65.239 89.132 66.84 91.954 68.985 95.731 72.55 98.132 74.49 98.626 74.522 98.631 74.553 98.64 74.584 98.643 74.909 98.704 75.257 98.656 75.567 98.48 75.886 98.299 76.107 98.021 76.222 97.701 76.23 97.682 76.238 97.656 76.244 97.631 76.815 95.714 76.594 91.42 74.452 87.643 72.852 84.817 70.827 84.378 69.446 84.485"/>
    <path fill="#E15E35" d="M58.94,80.147 C58.88,80.137 58.388,79.982 57.687,80.161 C57.059,80.321 56.627,80.711 56.581,80.749 C55.754,81.429 54.858,82.757 55.478,85.189 C56.312,88.446 58.485,90.957 59.832,91.72 C59.855,91.73 59.875,91.744 59.899,91.752 C60.129,91.862 60.398,91.897 60.665,91.83 C60.939,91.758 61.162,91.597 61.311,91.381 C61.321,91.368 61.333,91.351 61.342,91.333 C62.157,90.021 62.865,86.773 62.032,83.518 C61.413,81.085 59.991,80.347 58.94,80.147"/>
    <g transform="translate(42 94)">
      <mask id="beanstack-logo-b" fill="#fff">
        <use xlink:href="#beanstack-logo-a"/>
      </mask>
      <path fill="#E15E35" d="M16.213,2.588 C16.162,2.582 15.745,2.468 15.165,2.64 C14.644,2.794 14.295,3.134 14.257,3.167 C13.587,3.763 12.879,4.902 13.476,6.917 C14.277,9.616 16.175,11.648 17.326,12.243 C17.346,12.251 17.363,12.262 17.383,12.269 C17.579,12.354 17.806,12.374 18.027,12.31 C18.254,12.241 18.435,12.099 18.553,11.913 C18.562,11.902 18.57,11.888 18.578,11.872 C19.218,10.747 19.707,8.009 18.906,5.311 C18.312,3.296 17.099,2.723 16.213,2.588" mask="url(#beanstack-logo-b)"/>
      <path fill="#32B7C4" d="M5.758,0.471 C5.695,0.439 5.205,0.099 4.368,0.052 C3.617,0.014 3.003,0.294 2.939,0.32 C1.788,0.786 0.336,1.943 0.179,4.849 C-0.03,8.743 1.502,12.276 2.73,13.586 C2.751,13.605 2.769,13.628 2.792,13.645 C3.007,13.847 3.295,13.979 3.612,13.998 C3.941,14.015 4.242,13.912 4.484,13.724 C4.5,13.715 4.517,13.7 4.534,13.683 C5.892,12.513 7.801,9.167 8.01,5.275 C8.168,2.37 6.852,1.059 5.758,0.471" mask="url(#beanstack-logo-b)"/>
    </g>
    <path fill="#32B7C4" d="M39.503,87.085 C39.458,87.046 39.129,86.683 38.469,86.492 C37.878,86.322 37.335,86.432 37.279,86.441 C36.274,86.6 34.9,87.255 34.237,89.544 C33.349,92.616 33.917,95.719 34.654,96.992 C34.669,97.013 34.678,97.032 34.693,97.051 C34.828,97.253 35.033,97.411 35.283,97.484 C35.542,97.56 35.801,97.532 36.029,97.427 C36.044,97.423 36.06,97.413 36.078,97.404 C37.378,96.721 39.523,94.403 40.409,91.336 C41.074,89.046 40.266,87.755 39.503,87.085"/>
    <path fill="#E15E35" d="M28.954,89.77 C28.918,89.731 28.658,89.387 28.093,89.167 C27.587,88.971 27.101,89.024 27.051,89.029 C26.157,89.089 24.899,89.557 24.136,91.515 C23.114,94.143 23.368,96.913 23.915,98.09 C23.927,98.108 23.933,98.127 23.945,98.145 C24.048,98.332 24.215,98.487 24.429,98.571 C24.65,98.657 24.881,98.653 25.089,98.579 C25.102,98.577 25.117,98.57 25.133,98.563 C26.329,98.066 28.396,96.199 29.416,93.574 C30.18,91.615 29.572,90.418 28.954,89.77"/>
    <path fill="#32B7C4" d="M33.555,75.152 C33.523,75.089 33.321,74.533 32.671,74.018 C32.088,73.559 31.43,73.434 31.363,73.419 C30.169,73.139 28.335,73.244 26.551,75.5 C24.158,78.526 23.378,82.252 23.62,84.011 C23.629,84.041 23.63,84.067 23.637,84.095 C23.697,84.383 23.854,84.652 24.1,84.848 C24.354,85.05 24.657,85.137 24.96,85.123 C24.978,85.126 25,85.123 25.023,85.121 C26.788,84.952 30.241,83.339 32.631,80.314 C34.417,78.059 34.103,76.25 33.555,75.152"/>
    <path fill="#E15E35" d="M26.325,66.747 C26.315,66.666 26.296,65.984 25.774,65.184 C25.305,64.47 24.632,64.091 24.565,64.051 C23.363,63.307 21.318,62.751 18.543,64.563 C14.82,66.996 12.604,70.783 12.225,72.794 C12.222,72.83 12.214,72.858 12.213,72.892 C12.173,73.228 12.246,73.58 12.442,73.884 C12.647,74.196 12.946,74.403 13.282,74.499 C13.3,74.509 13.326,74.515 13.352,74.521 C15.342,74.981 19.707,74.481 23.425,72.052 C26.204,70.239 26.523,68.148 26.325,66.747"/>
    <path fill="#32B7C4" d="M11.929,64.262 C11.93,64.211 11.98,63.801 11.739,63.273 C11.523,62.804 11.153,62.516 11.117,62.485 C10.464,61.931 9.289,61.412 7.462,62.248 C5.01,63.37 3.34,65.439 2.93,66.61 C2.926,66.631 2.919,66.647 2.915,66.667 C2.86,66.866 2.872,67.083 2.962,67.282 C3.057,67.489 3.217,67.64 3.41,67.728 C3.42,67.735 3.435,67.741 3.45,67.747 C4.601,68.202 7.263,68.298 9.711,67.179 C11.54,66.343 11.92,65.118 11.929,64.262"/>
    <g transform="translate(0 43)">
      <mask id="beanstack-logo-d" fill="#fff">
        <use xlink:href="#beanstack-logo-c"/>
      </mask>
      <path fill="#32B7C4" d="M23.005,10.794 C23.016,10.715 23.166,10.078 22.88,9.208 C22.622,8.431 22.091,7.915 22.04,7.86 C21.109,6.875 19.353,5.856 16.335,6.851 C12.285,8.187 9.299,11.148 8.452,12.917 C8.442,12.95 8.426,12.975 8.417,13.005 C8.296,13.308 8.277,13.65 8.385,13.979 C8.498,14.319 8.724,14.586 9.01,14.757 C9.026,14.771 9.048,14.782 9.07,14.794 C10.8,15.711 14.968,16.325 19.011,14.991 C22.032,13.998 22.842,12.139 23.005,10.794" mask="url(#beanstack-logo-d)"/>
      <path fill="#E15E35" d="M10.687,4.957 C10.713,4.906 10.969,4.511 10.985,3.852 C11,3.263 10.764,2.782 10.744,2.733 C10.351,1.84 9.408,0.723 7.12,0.665 C4.051,0.589 1.307,1.872 0.305,2.865 C0.289,2.885 0.272,2.897 0.259,2.916 C0.104,3.092 0.007,3.32 0,3.569 C-0.005,3.828 0.083,4.063 0.236,4.25 C0.243,4.261 0.256,4.274 0.269,4.287 C1.218,5.33 3.895,6.758 6.959,6.834 C9.249,6.893 10.25,5.829 10.687,4.957" mask="url(#beanstack-logo-d)"/>
    </g>
    <path fill="#32B7C4" d="M21.937 41.363C21.977 41.311 22.345 40.915 22.496 40.174 22.63 39.51 22.46 38.921 22.446 38.862 22.181 37.773 21.34 36.324 18.767 35.801 15.315 35.101 11.96 36.002 10.629 36.924 10.607 36.941 10.585 36.953 10.567 36.972 10.356 37.139 10.202 37.377 10.144 37.657 10.086 37.948 10.138 38.23 10.275 38.473 10.28 38.486 10.291 38.506 10.303 38.522 11.167 39.89 13.905 42.037 17.351 42.737 19.926 43.261 21.269 42.261 21.937 41.363M16.181 32.088C16.227 32.062 16.631 31.89 16.988 31.39 17.307 30.941 17.376 30.447 17.385 30.4 17.548 29.504 17.402 28.149 15.665 26.911 13.335 25.251 10.546 24.812 9.254 25.057 9.232 25.062 9.211 25.063 9.192 25.071 8.98 25.125 8.787 25.251 8.651 25.44 8.512 25.638 8.458 25.864 8.479 26.089 8.479 26.102 8.48 26.118 8.484 26.136 8.673 27.436 9.996 29.935 12.322 31.593 14.061 32.832 15.388 32.534 16.181 32.088"/>
    <path fill="#E15E35" d="M29.902 32.832C29.973 32.799 30.591 32.593 31.181 31.897 31.706 31.272 31.867 30.552 31.886 30.483 32.235 29.177 32.184 27.156 29.765 25.117 26.519 22.379 22.449 21.393 20.509 21.599 20.476 21.604 20.445 21.604 20.416 21.613 20.096 21.668 19.797 21.829 19.572 22.095 19.343 22.368 19.235 22.697 19.239 23.031 19.238 23.05 19.238 23.075 19.24 23.102 19.363 25.046 21.017 28.9 24.257 31.634 26.677 33.676 28.676 33.396 29.902 32.832M29.453 18.792C29.504 18.776 29.934 18.703 30.394 18.303 30.805 17.94 30.986 17.479 31.005 17.437 31.368 16.607 31.538 15.264 30.144 13.67 28.272 11.526 25.676 10.463 24.37 10.401 24.348 10.401 24.327 10.398 24.307 10.401 24.09 10.406 23.875 10.482 23.699 10.636 23.521 10.793 23.415 11.001 23.384 11.222 23.381 11.233 23.379 11.251 23.378 11.27 23.262 12.568 23.968 15.289 25.836 17.426 27.232 19.024 28.584 19.04 29.453 18.792"/>
    <path fill="#32B7C4" d="M37.964,28.306 C38.04,28.333 38.62,28.638 39.536,28.577 C40.357,28.518 40.992,28.13 41.054,28.095 C42.243,27.435 43.67,25.981 43.451,22.804 C43.161,18.536 41.021,14.903 39.515,13.642 C39.488,13.62 39.467,13.598 39.439,13.582 C39.176,13.391 38.849,13.288 38.499,13.311 C38.142,13.338 37.827,13.488 37.59,13.726 C37.575,13.734 37.555,13.756 37.539,13.778 C36.218,15.227 34.587,19.124 34.879,23.379 C35.094,26.563 36.699,27.813 37.964,28.306"/>
    <g transform="translate(40)">
      <mask id="beanstack-logo-f" fill="#fff">
        <use xlink:href="#beanstack-logo-e"/>
      </mask>
      <path fill="#E15E35" d="M9.626,23.202 C9.678,23.221 10.073,23.429 10.697,23.387 C11.256,23.347 11.689,23.082 11.732,23.059 C12.542,22.608 13.513,21.618 13.364,19.454 C13.166,16.547 11.709,14.072 10.683,13.213 C10.665,13.198 10.65,13.183 10.631,13.172 C10.452,13.042 10.229,12.972 9.991,12.987 C9.747,13.006 9.533,13.108 9.371,13.27 C9.361,13.275 9.348,13.29 9.336,13.306 C8.437,14.292 7.326,16.947 7.525,19.846 C7.671,22.016 8.765,22.866 9.626,23.202" mask="url(#beanstack-logo-f)"/>
      <path fill="#32B7C4" d="M2.451,11.031 C2.501,11.058 2.872,11.315 3.503,11.351 C4.07,11.38 4.536,11.168 4.583,11.15 C5.452,10.799 6.55,9.927 6.67,7.735 C6.833,4.792 5.678,2.128 4.756,1.137 C4.739,1.12 4.727,1.103 4.709,1.09 C4.545,0.937 4.33,0.839 4.089,0.825 C3.842,0.813 3.614,0.889 3.432,1.031 C3.421,1.035 3.406,1.048 3.392,1.062 C2.367,1.94 0.921,4.468 0.76,7.401 C0.637,9.598 1.629,10.587 2.451,11.031" mask="url(#beanstack-logo-f)"/>
    </g>
    <path fill="#E15E35" d="M56.459,13.943 C56.517,13.979 56.944,14.316 57.7,14.403 C58.38,14.479 58.956,14.258 59.013,14.24 C60.083,13.88 61.465,12.911 61.767,10.284 C62.174,6.758 60.976,3.474 59.939,2.215 C59.921,2.194 59.906,2.172 59.886,2.155 C59.7,1.959 59.448,1.825 59.16,1.793 C58.863,1.761 58.585,1.835 58.356,1.993 C58.342,1.997 58.322,2.012 58.306,2.027 C57.01,3.01 55.091,5.944 54.686,9.46 C54.381,12.091 55.503,13.351 56.459,13.943"/>
    <path fill="#32B7C4" d="M63.058,21.337 C63.094,21.374 63.343,21.702 63.879,21.91 C64.363,22.095 64.827,22.043 64.872,22.041 C65.725,21.98 66.922,21.535 67.643,19.667 C68.611,17.162 68.36,14.527 67.839,13.408 C67.829,13.391 67.822,13.371 67.812,13.355 C67.712,13.177 67.554,13.03 67.348,12.952 C67.137,12.872 66.919,12.873 66.722,12.945 C66.71,12.945 66.693,12.954 66.678,12.962 C65.542,13.434 63.579,15.218 62.613,17.716 C61.889,19.585 62.47,20.722 63.058,21.337"/>
    <path fill="#E15E35" d="M72.333,14.602 C72.364,14.644 72.572,15.007 73.084,15.285 C73.546,15.534 74.019,15.542 74.065,15.546 C74.93,15.597 76.191,15.306 77.159,13.521 C78.461,11.13 78.551,8.448 78.173,7.255 C78.166,7.235 78.162,7.216 78.153,7.198 C78.075,7.005 77.936,6.837 77.74,6.731 C77.538,6.624 77.318,6.597 77.11,6.645 C77.098,6.643 77.081,6.648 77.065,6.655 C75.862,6.98 73.654,8.519 72.358,10.903 C71.386,12.688 71.822,13.906 72.333,14.602"/>
    <path fill="#32B7C4" d="M72.335 24.611C72.351 24.674 72.414 25.195 72.869 25.768 73.282 26.28 73.825 26.522 73.876 26.549 74.853 27.03 76.451 27.311 78.442 25.72 81.114 23.593 82.53 20.537 82.675 18.973 82.676 18.946 82.682 18.924 82.68 18.897 82.685 18.636 82.606 18.374 82.431 18.156 82.249 17.934 82.009 17.794 81.746 17.749 81.733 17.739 81.71 17.738 81.687 17.739 80.138 17.527 76.836 18.227 74.172 20.351 72.177 21.936 72.086 23.558 72.335 24.611M84.635 23.485C84.642 23.537 84.648 23.963 84.965 24.464 85.252 24.914 85.669 25.156 85.707 25.183 86.452 25.656 87.717 26.022 89.46 24.913 91.801 23.433 93.209 21.094 93.463 19.845 93.466 19.824 93.473 19.807 93.473 19.785 93.5 19.574 93.459 19.356 93.337 19.165 93.21 18.97 93.029 18.837 92.82 18.777 92.811 18.768 92.793 18.766 92.775 18.765 91.544 18.458 88.821 18.733 86.488 20.212 84.741 21.315 84.526 22.615 84.635 23.485"/>
    <path fill="#E15E35" d="M80.19,33.502 C80.174,33.577 79.969,34.171 80.161,35.025 C80.337,35.793 80.796,36.336 80.836,36.392 C81.636,37.421 83.211,38.556 86.185,37.884 C90.173,36.989 93.292,34.438 94.266,32.829 C94.28,32.801 94.298,32.779 94.309,32.75 C94.451,32.472 94.503,32.148 94.428,31.821 C94.349,31.486 94.163,31.211 93.904,31.026 C93.894,31.008 93.871,30.995 93.845,30.985 C92.288,29.948 88.367,28.978 84.391,29.873 C81.416,30.539 80.471,32.238 80.19,33.502"/>
    <path fill="#32B7C4" d="M88.021,41.571 C87.989,41.614 87.693,41.931 87.571,42.524 C87.465,43.06 87.6,43.532 87.609,43.578 C87.822,44.455 88.494,45.618 90.562,46.037 C93.331,46.606 96.024,45.88 97.094,45.14 C97.11,45.127 97.129,45.119 97.144,45.104 C97.313,44.968 97.437,44.777 97.483,44.551 C97.527,44.316 97.488,44.09 97.377,43.9 C97.376,43.886 97.365,43.872 97.352,43.859 C96.663,42.761 94.465,41.037 91.702,40.475 C89.635,40.051 88.558,40.854 88.021,41.571"/>
    <path fill="#E15E35" d="M77.584,47.603 C77.547,47.655 77.187,48.039 77.039,48.761 C76.91,49.41 77.073,49.983 77.085,50.039 C77.343,51.103 78.159,52.515 80.669,53.023 C84.03,53.713 87.299,52.832 88.598,51.935 C88.618,51.919 88.64,51.91 88.658,51.891 C88.863,51.726 89.014,51.494 89.07,51.22 C89.124,50.935 89.077,50.66 88.942,50.43 C88.941,50.412 88.927,50.395 88.911,50.381 C88.075,49.047 85.406,46.954 82.053,46.272 C79.545,45.758 78.236,46.733 77.584,47.603"/>
    <path fill="#32B7C4" d="M88.5,56.526 C88.465,56.566 88.141,56.85 87.963,57.426 C87.807,57.944 87.894,58.424 87.899,58.47 C88.024,59.356 88.575,60.571 90.578,61.187 C93.26,62.016 95.991,61.56 97.121,60.934 C97.138,60.923 97.157,60.917 97.174,60.902 C97.354,60.784 97.494,60.608 97.562,60.389 C97.629,60.161 97.613,59.934 97.522,59.735 C97.522,59.721 97.512,59.706 97.5,59.693 C96.926,58.541 94.921,56.623 92.245,55.8 C90.243,55.181 89.1,55.87 88.5,56.526"/>
    <path fill="#E15E35" d="M18.747,80.969 C18.732,80.924 18.66,80.536 18.288,80.125 C17.954,79.76 17.535,79.605 17.492,79.589 C16.737,79.272 15.516,79.141 14.094,80.433 C12.187,82.164 11.265,84.533 11.233,85.719 C11.235,85.739 11.233,85.758 11.235,85.776 C11.243,85.972 11.317,86.167 11.456,86.322 C11.602,86.482 11.793,86.574 11.993,86.597 C12.005,86.601 12.02,86.601 12.035,86.603 C13.216,86.686 15.668,86 17.573,84.269 C18.996,82.979 18.987,81.753 18.747,80.969"/>
    <path fill="#32B7C4" d="M135.28 66.865C135.28 60.986 132.76 57.877 127.468 57.877L127.72 75.098C132.424 75.35 135.28 73.418 135.28 66.865zM127.384 49.394C132.424 49.562 134.861 46.789 134.861 41.162 134.861 35.366 132.676 32.426 127.384 32.846L127.384 49.394zM115.877 25.118C120.244 24.278 124.193 23.858 127.552 23.858 140.152 23.858 145.528 29.402 145.528 40.07 145.528 46.37 142.337 50.822 137.632 52.669 143.26 54.77 146.62 59.726 146.62 67.117 146.62 79.129 138.724 83.75 125.368 83.75 122.68 83.75 119.74 83.498 116.548 83.078 116.548 83.078 116.465 55.862 115.877 25.118zM159.892 59.053C162.16 59.053 164.344 58.969 166.696 58.885 166.78 52.082 165.856 48.133 163.504 48.133 161.152 48.133 160.144 51.83 159.892 59.053zM148.384 61.994C148.384 49.982 152.584 40.658 163.588 40.658 175.851 40.658 179.045 51.326 178.205 65.354 178.205 65.354 170.98 65.438 159.892 65.606 160.144 73.082 161.32 76.189 163.84 76.189 165.94 76.189 167.032 73.754 167.2 68.629 167.2 68.629 172.912 68.713 178.541 68.881 177.617 78.541 172.156 84.254 163.756 84.254 151.66 84.254 148.384 74.762 148.384 61.994zM198.617 64.01C193.24 64.85 191.392 68.293 191.392 71.822 191.392 74.342 192.316 76.189 194.668 76.189 196.851 76.189 198.701 74.258 198.701 67.285 198.701 66.193 198.701 65.018 198.617 64.01zM180.472 73.418C180.472 64.262 186.855 59.138 198.195 58.297 198.195 58.297 198.111 56.786 198.111 55.61 197.943 50.654 197.271 48.974 195.34 48.974 193.072 48.974 192.232 51.578 192.316 56.45 192.316 56.45 188.117 56.618 181.816 56.534 181.396 47.545 185.763 40.91 195.759 40.91 204.916 40.91 208.863 46.706 209.115 56.114 209.453 71.318 209.199 84.254 209.199 84.254 209.199 84.254 206.679 84.338 200.716 84.422 200.716 84.422 200.968 81.65 201.052 78.121 199.373 82.574 195.423 84.17 191.224 84.17 185.007 84.17 180.472 80.221 180.472 73.418zM230.115 55.022C230.115 52.25 229.527 50.906 227.847 50.906 225.58 50.906 224.404 53.425 224.404 56.786 224.234 63.086 224.318 82.154 224.318 82.154 224.318 82.154 219.111 82.07 213.062 82.154 213.062 82.154 213.398 66.109 213.23 42.253 213.23 42.253 217.011 42.421 222.05 42.169 222.05 42.169 221.882 45.53 221.966 48.47 223.73 44.102 227.679 40.826 232.298 40.826 238.095 40.826 240.867 44.942 241.119 52.333 241.287 56.786 241.287 84.758 241.287 84.758 237.256 84.758 230.031 84.842 230.031 84.842 230.031 84.842 230.115 68.293 230.115 55.022M243.974 68.209C243.974 68.209 247.588 68.293 254.642 68.713 254.306 73.754 255.23 76.189 258.088 76.189 259.683 76.189 261.111 75.098 261.111 72.326 261.111 70.311 260.355 68.461 253.97 65.857 247.084 63.086 243.974 59.053 243.974 52.333 243.974 45.698 248.763 40.238 257.752 40.238 267.16 40.238 271.527 46.874 270.939 56.954 270.939 56.954 266.486 56.702 260.775 56.702 261.195 51.914 260.439 48.722 257.668 48.722 255.482 48.722 254.39 50.486 254.39 52.501 254.39 55.442 255.986 57.206 261.363 59.558 269.511 63.17 271.611 66.949 271.611 72.326 271.611 81.063 265.394 84.422 258.088 84.422 248.763 84.422 243.386 79.381 243.974 68.209M272.703 42.253C274.131 42.337 275.474 42.337 276.818 42.337 276.902 35.786 276.986 31.585 276.986 31.585 284.715 31.753 287.822 31.669 287.822 31.669 287.822 31.669 287.654 36.122 287.57 42.505 291.771 42.589 294.543 42.505 294.543 42.505 294.375 50.402 294.459 52.25 294.459 52.25 292.023 52.166 289.754 52.166 287.57 52.166 287.57 57.206 287.57 62.582 287.738 67.873 287.822 70.898 289.166 72.326 291.939 72.326 292.695 72.326 293.619 72.242 294.627 71.99L295.298 82.322C292.695 82.994 290.341 83.33 288.242 83.33 281.187 83.33 276.902 79.885 276.818 71.15 276.734 64.262 276.65 57.877 276.734 52.166 274.97 52.082 272.787 52.166 272.787 52.166 272.871 44.69 272.703 42.253 272.703 42.253M314.955 64.01C309.58 64.85 307.73 68.293 307.73 71.822 307.73 74.342 308.654 76.189 311.007 76.189 313.191 76.189 315.039 74.258 315.039 67.285 315.039 66.193 315.039 65.018 314.955 64.01zM296.81 73.418C296.81 64.262 303.195 59.138 314.535 58.297 314.535 58.297 314.451 56.786 314.451 55.61 314.283 50.654 313.611 48.974 311.679 48.974 309.41 48.974 308.57 51.578 308.654 56.45 308.654 56.45 304.455 56.618 298.154 56.534 297.734 47.545 302.103 40.91 312.099 40.91 321.256 40.91 325.203 46.706 325.455 56.114 325.791 71.318 325.539 84.254 325.539 84.254 325.539 84.254 323.019 84.338 317.054 84.422 317.054 84.422 317.306 81.65 317.39 78.121 315.711 82.574 311.763 84.17 307.562 84.17 301.347 84.17 296.81 80.221 296.81 73.418zM328.644 62.33C328.644 48.89 333.769 40.49 344.353 40.49 354.265 40.49 359.052 48.638 358.297 59.053 350.316 58.801 347.041 58.801 347.041 58.801 347.209 52.166 346.201 48.722 343.933 48.722 341.498 48.722 340.404 52.837 340.404 62.666 340.404 71.906 341.582 75.518 343.933 75.518 345.949 75.518 347.293 73.082 346.957 65.773 346.957 65.773 349.56 65.857 358.381 65.606 358.548 80.053 352.082 84.338 343.933 84.338 333.013 84.338 328.644 76.357 328.644 62.33M375.601 68.377C373.922 71.402 372.66 73.922 372.66 73.922 372.746 79.717 372.83 82.238 372.83 82.238 365.353 82.07 361.488 82.154 361.488 82.154 361.656 44.438 361.404 26.209 361.404 26.209 369.3 26.461 372.66 26.293 372.66 26.293 372.576 41.162 372.576 51.578 372.66 59.978 377.197 47.713 379.632 40.574 379.632 40.574 386.521 40.994 391.896 41.246 391.896 41.246 387.697 49.646 385.009 55.442 383.498 58.717 388.537 74.846 391.98 84.674 391.98 84.674 383.834 84.842 379.968 85.01 379.968 85.01 378.037 77.365 376.525 71.906 375.601 68.377"/>
  </g>
</svg>
