<?xml version="1.0" encoding="UTF-8"?>
<svg width="386px" height="66px" viewBox="0 0 386 66" version="1.1" xmlns="http://www.w3.org/2000/svg" xmlns:xlink="http://www.w3.org/1999/xlink">
    <!-- Generator: Sketch 63.1 (92452) - https://sketch.com -->
    <title>beanstack-logo</title>
    <desc>Created with Sketch.</desc>
    <g id="Page-1" stroke="none" stroke-width="1" fill="none" fill-rule="evenodd">
        <g id="beanstack-logo" transform="translate(-0.190000, 0.206186)">
            <g id="Beanstack/Logo/Logo-New">
                <g id="beanbright-logo" stroke-width="1" fill-rule="evenodd" transform="translate(-6.632302, -3.979381)" fill="#19BFD5">
                    <g id="Beanstack/Logo/Heart" transform="translate(-0.000008, -0.000050)" fill-rule="nonzero">
                        <path d="M13.8289365,19.5116886 C5.77315968,26.3167609 6.79832776,39.9823732 30.3792581,69.7634236 C30.9635935,70.5009394 32.088904,70.6457719 31.7833151,69.1368434 C30.9181682,64.8791794 30.551668,56.7510983 38.9935606,49.1715318 C49.5756076,39.6701102 62.1574034,23.7857876 54.092335,12.4498212 C45.9622258,1.02243573 30.3472538,7.91173679 26.2176746,20.3241885 C26.2176746,20.3241885 20.6685523,13.7337971 13.8289365,19.5116886 Z" id="Path" transform="translate(32.972000, 38.467354) rotate(-17.000000) translate(-32.972000, -38.467354) "></path>
                    </g>
                </g>
                <g id="Beanstack/Logo/Text" transform="translate(68.975945, 14.591065)" fill="#323232" fill-rule="nonzero">
                    <path d="M155.608159,47.1668675 C154.554725,46.5696702 153.970765,45.8117003 153.856261,44.8929352 C153.741758,43.9741701 154.005112,42.9865125 154.646333,41.9299326 L155.676861,40.3450707 C156.363883,39.3344291 157.108146,38.7602096 157.909672,38.6223948 C158.711198,38.48458 159.707365,38.6912991 160.898203,39.2425581 C161.768432,39.6100642 162.753149,40.0120179 163.852384,40.4484313 C164.951619,40.8848447 166.211141,41.1030482 167.630987,41.1030482 C168.821825,41.1030482 169.65769,40.9078135 170.138605,40.5173383 C170.619521,40.1268632 170.859975,39.6560031 170.859975,39.1047441 C170.859975,38.4156702 170.447768,37.8644194 169.623341,37.4509751 C168.798915,37.0375308 167.779847,36.6355771 166.566108,36.245102 C165.352369,35.8546268 164.024146,35.4182199 162.581399,34.9358683 C161.138653,34.4535166 159.81043,33.7874219 158.596691,32.9375642 C157.382952,32.0877064 156.363884,30.9852049 155.539457,29.6300263 C154.715031,28.2748478 154.302824,26.5636735 154.302824,24.496452 C154.302824,22.6589218 154.68068,21.0396226 155.436405,19.6385058 C156.192129,18.237389 157.234097,17.0659811 158.56234,16.1242469 C159.890583,15.1825127 161.44781,14.4704804 163.234067,13.9881287 C165.020325,13.505777 166.943958,13.2646048 169.005025,13.2646048 C171.249297,13.2646048 173.207281,13.5172614 174.879035,14.0225822 C176.550789,14.527903 177.936263,15.0332163 179.035498,15.5385371 C180.088932,16.0438579 180.707243,16.7558901 180.890449,17.6746552 C181.073655,18.5934203 180.913352,19.581078 180.409535,20.6376579 L179.585113,22.2914268 C179.081297,23.3939449 178.417185,24.0600396 177.592759,24.2897309 C176.768332,24.5194222 175.760715,24.4045782 174.569876,23.9451957 C173.74545,23.6236279 172.829434,23.3135493 171.821801,23.0149507 C170.814169,22.716352 169.71495,22.5670549 168.524111,22.5670549 C167.24167,22.5670549 166.394355,22.7508052 165.982142,23.1183112 C165.569929,23.4858173 165.363825,23.9222242 165.363825,24.427545 C165.363825,25.1166188 165.776032,25.6563852 166.600459,26.0468604 C167.424886,26.4373355 168.443953,26.8278048 169.657692,27.21828 C170.871431,27.6087552 172.199654,28.0336777 173.642401,28.4930602 C175.085148,28.9524428 176.41337,29.6070531 177.62711,30.4569108 C178.840849,31.3067685 179.859916,32.3863013 180.684343,33.6955416 C181.50877,35.0047818 181.920977,36.6929874 181.920977,38.7602089 C181.920977,40.413986 181.588921,41.9528945 180.9248,43.3769804 C180.260678,44.8010663 179.298861,46.0298962 178.039321,47.0635069 C176.77978,48.0971177 175.245454,48.9125095 173.436295,49.5097068 C171.627137,50.1069041 169.600452,50.4054983 167.35618,50.4054983 C164.699694,50.4054983 162.386754,50.0494821 160.41729,49.3374392 C158.447827,48.6253962 156.844799,47.9018796 155.608159,47.1668675 Z" id="Path"></path>
                    <path d="M188.170857,23.3469122 L187.102982,23.3469122 C184.540068,23.3469122 183.258631,22.0922555 183.258631,19.5829044 L183.258631,17.8719918 C183.258631,15.3626408 184.563799,14.1079841 187.174173,14.1079841 L188.526815,14.1079841 L188.526815,7.74338918 C188.526815,5.23403814 189.831983,3.97938144 192.442358,3.97938144 L196.571476,3.97938144 C199.18185,3.97938144 200.487018,5.23403814 200.487018,7.74338918 L200.487018,14.1079841 L204.260177,14.1079841 C206.870552,14.1079841 208.17572,15.3626408 208.17572,17.8719918 L208.17572,19.5829044 C208.17572,22.0922555 206.894282,23.3469122 204.331369,23.3469122 L200.487018,23.3469122 L200.487018,34.0230068 C200.487018,35.5286175 200.926029,36.6121846 201.804064,37.2737408 C202.682099,37.935297 203.666908,38.3345059 204.758519,38.4713796 C206.18236,38.6538779 207.190898,38.996057 207.784165,39.4979272 C208.377432,39.9997974 208.674062,40.912275 208.674062,42.2353874 L208.674062,45.3150301 C208.674062,46.7293916 208.246916,47.710305 207.392611,48.2577997 C206.538307,48.8052945 205.2806,49.0790378 203.619452,49.0790378 C202.243073,49.0790378 200.676871,48.8965423 198.920801,48.5315458 C197.164731,48.1665493 195.479878,47.505003 193.866192,46.5468871 C192.252505,45.5887713 190.899877,44.2770847 189.808266,42.6117881 C188.716654,40.9464915 188.170857,38.8135752 188.170857,36.212975 L188.170857,23.3469122 Z" id="Path"></path>
                    <path d="M227.395636,13.2646048 C232.375793,13.2646048 236.297026,14.5393723 239.159453,17.0889454 C242.02188,19.6385186 243.453072,23.1871955 243.453072,27.7350828 L243.453072,45.7887267 C243.453072,48.3153308 242.173144,49.5786138 239.61325,49.5786138 L236.262133,49.5786138 C233.702239,49.5786138 232.422311,48.292362 232.422311,45.7198197 L232.422311,44.9618423 C232.422311,44.8699658 232.445583,44.8010594 232.492126,44.7551212 L232.352496,44.7551212 C231.654343,45.811701 230.793301,46.7534211 229.769344,47.5803097 C228.885017,48.3153218 227.767989,48.9699321 226.418227,49.5441603 C225.068464,50.1183885 223.50928,50.4054983 221.740626,50.4054983 C220.018515,50.4054983 218.436059,50.1298729 216.99321,49.5786138 C215.55036,49.0273548 214.316975,48.2693849 213.293018,47.3046816 C212.26906,46.3399782 211.466197,45.1915391 210.884402,43.8593297 C210.302608,42.5271203 210.011716,41.1030557 210.011716,39.5870933 C210.011716,37.1983041 210.65168,35.2229887 211.931627,33.6610881 C213.211574,32.0991874 214.852208,30.8588731 216.85358,29.940108 C218.854951,29.0213429 221.042464,28.378217 223.416184,28.0107109 C225.789904,27.6432049 228.093774,27.4594546 230.327863,27.4594546 L231.375087,27.4594546 L231.375087,26.8392913 C231.375087,25.3692671 230.863116,24.3471563 229.839159,23.7729281 C228.815201,23.1986999 227.628359,22.9115901 226.278597,22.9115901 C225.115009,22.9115901 223.974709,23.0723716 222.857665,23.3939394 C221.74062,23.7155072 220.716678,24.0830077 219.785807,24.496452 C217.412087,25.5070936 215.690003,24.9558428 214.619502,22.8426831 L213.781722,21.1200071 C213.269744,20.0634273 213.130115,19.087254 213.362833,18.191458 C213.59555,17.2956621 214.24715,16.5721454 215.317651,16.0208863 C216.667413,15.3777508 218.366227,14.7575936 220.414142,14.1603963 C222.462057,13.563199 224.789198,13.2646048 227.395636,13.2646048 Z M231.514717,34.2812514 L230.397678,34.2812514 C229.466808,34.2812514 228.501044,34.3501577 227.500358,34.4879725 C226.499672,34.6257873 225.592087,34.8554751 224.777575,35.1770429 C223.963064,35.4986107 223.288193,35.9235332 222.752942,36.4518231 C222.217692,36.980113 221.95007,37.6576921 221.95007,38.4845807 C221.95007,39.3114693 222.240963,40.0235016 222.822757,40.6206989 C223.404551,41.2178962 224.253958,41.5164904 225.371002,41.5164904 C226.255329,41.5164904 227.069829,41.3212557 227.814525,40.9307806 C228.559222,40.5403054 229.210821,40.0464766 229.769344,39.4492792 C230.327866,38.8520819 230.758387,38.1859872 231.06092,37.4509751 C231.363453,36.7159631 231.514717,35.980962 231.514717,35.2459499 L231.514717,34.2812514 Z" id="Combined-Shape"></path>
                    <path d="M246.12838,31.800598 C246.12838,29.4118088 246.574583,27.1034461 247.467002,24.8754407 C248.359421,22.6474353 249.662803,20.67212 251.377188,18.9494354 C253.091572,17.2267509 255.205164,15.8486239 257.718029,14.8150132 C260.230893,13.7814024 263.107727,13.2646048 266.348618,13.2646048 C269.119814,13.2646048 271.46825,13.5976522 273.393997,14.2637569 C275.319743,14.9298616 276.869711,15.6533782 278.043947,16.4343286 C279.030305,17.0774641 279.582187,17.8469184 279.699611,18.7427143 C279.817034,19.6385103 279.546964,20.5917148 278.889392,21.6023564 L277.691678,23.3939394 C277.034106,24.4505193 276.282606,25.0362232 275.437156,25.1510689 C274.591707,25.2659145 273.605364,25.0477111 272.478097,24.496452 C271.773556,24.128946 270.975088,23.8188674 270.082668,23.566207 C269.190249,23.3135466 268.203906,23.1872183 267.123609,23.1872183 C265.667557,23.1872183 264.399402,23.4283905 263.319105,23.9107422 C262.238808,24.3930939 261.33466,25.0362198 260.606634,25.8401392 C259.878608,26.6440587 259.338467,27.5513256 258.986197,28.5619672 C258.633926,29.5726089 258.457793,30.6062041 258.457793,31.662784 C258.457793,32.7193638 258.645668,33.7759278 259.021424,34.8325077 C259.397179,35.8890876 259.960804,36.8308077 260.712315,37.6576963 C261.463825,38.4845848 262.4032,39.1621639 263.530466,39.6904539 C264.657732,40.2187438 265.996341,40.4828848 267.546332,40.4828848 C268.767537,40.4828848 269.941755,40.2761658 271.069022,39.8627215 C272.196288,39.4492772 273.206115,38.9899015 274.098534,38.4845807 C275.27277,37.8414451 276.29434,37.6117573 277.163274,37.7955103 C278.032209,37.9792634 278.771966,38.6453581 279.382569,39.7938144 L280.298468,41.5164904 C280.815132,42.5730702 281.003006,43.5377591 280.862098,44.410586 C280.72119,45.2834128 280.18105,46.0413827 279.241661,46.6845182 C277.973487,47.5114068 276.259128,48.338283 274.098534,49.1651716 C271.937941,49.9920602 269.354661,50.4054983 266.348618,50.4054983 C263.107727,50.4054983 260.230893,49.9001851 257.718029,48.8895434 C255.205164,47.8789018 253.091572,46.5122592 251.377188,44.7895747 C249.662803,43.0668901 248.359421,41.0800904 247.467002,38.8291159 C246.574583,36.5781414 246.12838,34.2353255 246.12838,31.800598 Z" id="Path"></path>
                    <path d="M8.12428237,-3.90798505e-14 C10.6487895,-3.90798505e-14 11.9110242,1.27110256 11.9110242,3.81334581 L11.9110242,14.4907141 C11.9110242,14.9529401 11.8995493,15.3689373 11.8765992,15.7387182 C11.8536492,16.108499 11.8421743,16.4320524 11.8421743,16.709388 C11.7962742,17.0329462 11.7733245,17.3102777 11.7733245,17.5413907 L11.9110242,17.5413907 C12.553626,16.7093839 13.3568662,15.9698333 14.3207689,15.3227168 C15.1010711,14.7680456 16.1108588,14.2480491 17.3501624,13.7627117 C18.5894659,13.2773744 20.0352983,13.0347093 21.6877029,13.0347093 C24.0286096,13.0347093 26.1629336,13.485373 28.090739,14.3867137 C30.0185445,15.2880545 31.6709244,16.5591571 33.0479283,18.2000596 C34.4249253,19.840962 35.5035691,21.7938378 36.2838713,24.0587454 C37.0641735,26.323653 37.4543187,28.8196362 37.4543187,31.5467699 C37.4543187,34.4125714 37.0297489,37.0125539 36.1805965,39.3467954 C35.3314441,41.681037 34.1724832,43.6685791 32.703679,45.3094816 C31.2348749,46.9503841 29.5136458,48.2099312 27.5399402,49.0881606 C25.5662347,49.9663901 23.4319106,50.4054983 21.1369041,50.4054983 C19.2090987,50.4054983 17.6140931,50.1512778 16.3518395,49.6428291 C15.0895859,49.1343805 14.0683234,48.5566066 13.2880212,47.9094901 C12.3700186,47.1699284 11.6126778,46.337934 11.0159761,45.4134819 L10.8782764,45.4134819 L10.8782764,45.6214826 C10.8782764,45.7139278 10.8897513,45.7948162 10.9127013,45.8641501 C10.9356514,45.933484 10.9471262,46.0143723 10.9471262,46.1068175 L10.9471262,46.3841518 C10.9471262,47.3086039 10.6258302,48.0712654 9.98322834,48.6721593 C9.34062652,49.2730531 8.39968797,49.5734956 7.16038446,49.5734956 L3.78674178,49.5734956 C1.26223464,49.5734956 0,48.302393 0,45.7601497 L0,3.81334581 C0,1.27110256 1.26223464,-3.90798505e-14 3.78674178,-3.90798505e-14 L8.12428237,-3.90798505e-14 Z M18.5894597,23.1574091 C17.6714571,23.1574091 16.7878928,23.3307413 15.9387404,23.6774108 C15.089588,24.0240804 14.3437221,24.5440769 13.7011203,25.2374159 C13.0585185,25.930755 12.5421497,26.8089713 12.1519986,27.8720912 C11.7618475,28.9352111 11.5667749,30.1832027 11.5667749,31.6161035 C11.5667749,32.8178912 11.7159481,33.950328 12.0142989,35.0134479 C12.3126498,36.0765678 12.7486945,37.0125615 13.3224461,37.8214571 C13.8961977,38.6303527 14.6076391,39.2774594 15.4567915,39.7627968 C16.3059439,40.2481341 17.281307,40.4907992 18.3829101,40.4907992 C20.3566157,40.4907992 22.0319453,39.7512486 23.4089492,38.2721252 C24.7859531,36.7930019 25.4744447,34.666794 25.4744447,31.8934377 C25.4744447,29.2587492 24.8433274,27.1440968 23.5810738,25.5494169 C22.3188203,23.9547371 20.6549655,23.1574091 18.5894597,23.1574091 Z" id="Combined-Shape-Copy"></path>
                    <path d="M58.5501307,13.2646048 C61.1620062,13.2646048 63.4874569,13.7010117 65.5265527,14.5738385 C67.5656485,15.4466654 69.2839618,16.6410421 70.6815443,18.1570045 C72.0791268,19.6729669 73.1330257,21.464532 73.8432725,23.5317535 C74.5535194,25.5989749 74.9086375,27.8269469 74.9086375,30.2157362 C74.9086375,31.1345013 74.5420639,32.0187994 73.8089059,32.8686571 C73.0757479,33.7185148 72.1134924,34.1434373 70.9221106,34.1434373 L52.2954075,34.1434373 C52.7536312,36.3484736 53.7617084,37.9562884 55.3196692,38.96693 C56.8776301,39.9775716 58.6188543,40.4828848 60.5433941,40.4828848 C61.7347759,40.4828848 62.8803181,40.3221033 63.9800552,40.0005355 C65.0797922,39.6789678 66.0878694,39.2884985 67.004317,38.8291159 C68.1498764,38.3237951 69.1350427,38.1630136 69.9598455,38.3467666 C70.7846483,38.5305197 71.4948845,39.1736456 72.0905754,40.2761637 L73.0528405,42.0677467 C73.602709,43.1243266 73.7859958,44.1004998 73.6027062,44.9962958 C73.4194167,45.8920918 72.8008239,46.6385772 71.7469093,47.2357745 C70.4638827,47.9707866 68.8028465,48.6828189 66.7637507,49.3718927 C64.7246549,50.0609665 62.3304716,50.4054983 59.581129,50.4054983 C56.419385,50.4054983 53.6242619,49.8772163 51.1956759,48.8206364 C48.7670899,47.7640565 46.7394802,46.3744452 45.1127858,44.6517606 C43.4860914,42.929076 42.2489058,40.9422763 41.4011918,38.6913018 C40.5534778,36.4403273 40.1296272,34.143449 40.1296272,31.800598 C40.1296272,29.1821175 40.5534778,26.7474265 41.4011918,24.496452 C42.2489058,22.2454775 43.4631806,20.293131 45.0440526,18.6393538 C46.6249246,16.9855766 48.560891,15.676356 50.8520098,14.7116526 C53.1431287,13.7469493 55.7091433,13.2646048 58.5501307,13.2646048 Z M58.2751978,22.0157986 C56.5339475,22.0157986 55.2280293,22.5440806 54.3574041,23.6006605 C53.486779,24.6572404 52.891097,25.8975547 52.5703404,27.3216406 L63.1552565,27.3216406 C63.1552565,25.8516164 62.7199505,24.5998177 61.8493253,23.566207 C60.9787002,22.5325963 59.7873362,22.0157986 58.2751978,22.0157986 Z" id="Combined-Shape-Copy-2"></path>
                    <path d="M93.6302116,13.2646048 C98.6103689,13.2646048 102.531602,14.5393723 105.394029,17.0889454 C108.256456,19.6385186 109.687648,23.1871955 109.687648,27.7350828 L109.687648,45.7887267 C109.687648,48.3153308 108.40772,49.5786138 105.847826,49.5786138 L102.496709,49.5786138 C99.936815,49.5786138 98.6568873,48.292362 98.6568873,45.7198197 L98.6568873,44.9618423 C98.6568873,44.8699658 98.6801587,44.8010594 98.7267022,44.7551212 L98.5870723,44.7551212 C97.8889195,45.811701 97.0278771,46.7534211 96.0039196,47.5803097 C95.1195926,48.3153218 94.0025647,48.9699321 92.6528025,49.5441603 C91.3030402,50.1183885 89.7438555,50.4054983 87.9752015,50.4054983 C86.2530911,50.4054983 84.6706349,50.1298729 83.2277857,49.5786138 C81.7849364,49.0273548 80.5515514,48.2693849 79.5275939,47.3046816 C78.5036363,46.3399782 77.7007725,45.1915391 77.1189784,43.8593297 C76.5371844,42.5271203 76.2462917,41.1030557 76.2462917,39.5870933 C76.2462917,37.1983041 76.8862556,35.2229887 78.1662025,33.6610881 C79.4461495,32.0991874 81.0867842,30.8588731 83.0881558,29.940108 C85.0895274,29.0213429 87.2770403,28.378217 89.6507601,28.0107109 C92.0244799,27.6432049 94.3283499,27.4594546 96.5624391,27.4594546 L97.6096632,27.4594546 L97.6096632,26.8392913 C97.6096632,25.3692671 97.0976921,24.3471563 96.0737345,23.7729281 C95.049777,23.1986999 93.8629348,22.9115901 92.5131726,22.9115901 C91.3495845,22.9115901 90.2092852,23.0723716 89.0922406,23.3939394 C87.975196,23.7155072 86.9512537,24.0830077 86.0203832,24.496452 C83.6466634,25.5070936 81.9245788,24.9558428 80.8540777,22.8426831 L80.0162984,21.1200071 C79.5043197,20.0634273 79.3646912,19.087254 79.5974088,18.191458 C79.8301264,17.2956621 80.481726,16.5721454 81.5522271,16.0208863 C82.9019894,15.3777508 84.6008026,14.7575936 86.6487177,14.1603963 C88.6966328,13.563199 91.0237742,13.2646048 93.6302116,13.2646048 Z M97.7492931,34.2812514 L96.632254,34.2812514 C95.7013835,34.2812514 94.7356198,34.3501577 93.734934,34.4879725 C92.7342482,34.6257873 91.8266631,34.8554751 91.0121514,35.1770429 C90.1976397,35.4986107 89.5227687,35.9235332 88.9875182,36.4518231 C88.4522676,36.980113 88.1846464,37.6576921 88.1846464,38.4845807 C88.1846464,39.3114693 88.475539,40.0235016 89.0573331,40.6206989 C89.6391272,41.2178962 90.4885338,41.5164904 91.6055784,41.5164904 C92.4899054,41.5164904 93.3044049,41.3212557 94.0491013,40.9307806 C94.7937977,40.5403054 95.4453973,40.0464766 96.0039196,39.4492792 C96.5624419,38.8520819 96.992963,38.1859872 97.295496,37.4509751 C97.5980289,36.7159631 97.7492931,35.980962 97.7492931,35.2459499 L97.7492931,34.2812514 Z" id="Combined-Shape-Copy-3"></path>
                    <path d="M113.70061,17.8178629 C113.70061,15.3260177 114.986304,14.0801137 117.55773,14.0801137 L121.484979,14.0801137 C124.009652,14.0801137 125.271969,15.3260177 125.271969,17.8178629 L125.271969,18.4294946 C125.271969,18.5201071 125.260281,18.6107183 125.236904,18.7013309 C125.213528,18.7919434 125.20184,18.8825546 125.20184,18.9731672 L125.20184,19.3129626 L125.342098,19.3129626 C125.762877,18.6333684 126.300531,17.9311316 126.955076,17.2062312 C127.60962,16.4813308 128.404413,15.835726 129.339477,15.2693975 C130.274541,14.7030691 131.361536,14.2273603 132.600496,13.842257 C133.839456,13.4571536 135.253719,13.2646048 136.843327,13.2646048 C138.666702,13.2646048 140.373168,13.4911328 141.962777,13.9441956 C143.552386,14.3972583 144.919896,15.1334743 146.06535,16.1528655 C147.210803,17.1722568 148.122477,18.5200983 148.800398,20.1964306 C149.478319,21.8727628 149.817275,23.9341675 149.817275,26.3807065 L149.817275,45.3412886 C149.817275,47.8331339 148.531581,49.0790378 145.960155,49.0790378 L141.542,49.0790378 C138.970574,49.0790378 137.684881,47.8331339 137.684881,45.3412886 L137.684881,28.5553969 C137.684881,26.9243709 137.357613,25.7464254 136.703069,25.0215249 C136.048524,24.2966245 135.043345,23.9341797 133.687502,23.9341797 C132.33166,23.9341797 131.162847,24.1833605 130.18103,24.6817296 C129.199213,25.1800986 128.381044,25.8596826 127.7265,26.7205018 C127.071955,27.5813211 126.592742,28.5780442 126.288846,29.7107012 C125.98495,30.8433581 125.833005,32.0213036 125.833005,33.2445731 L125.833005,45.3412886 C125.833005,47.8331339 124.547311,49.0790378 121.975885,49.0790378 L117.55773,49.0790378 C114.986304,49.0790378 113.70061,47.8331339 113.70061,45.3412886 L113.70061,17.8178629 Z" id="Path-Copy"></path>
                    <path d="M282.245045,3.7753106 C282.245045,1.25842428 283.513404,0 286.05016,0 L290.408746,0 C292.945502,0 294.213861,1.25842428 294.213861,3.7753106 L294.213861,25.397544 L297.603873,25.397544 L303.138586,16.2681566 C304.107165,14.5749785 305.606135,13.7284022 307.63554,13.7284022 L312.201678,13.7284022 C313.769855,13.7284022 314.784542,14.1631306 315.24577,15.0326004 C315.706999,15.9020702 315.52251,16.977451 314.692299,18.2587749 L307.220437,29.7906327 L307.220437,29.9279168 L316.283529,44.5486651 C317.067617,45.8757506 317.229045,46.9625716 316.767816,47.8091606 C316.306588,48.6557496 315.291901,49.0790378 313.723724,49.0790378 L308.534931,49.0790378 C306.551649,49.0790378 305.052679,48.1867006 304.037977,46.4019994 L297.949792,35.3506356 L294.213861,35.3506356 L294.213861,45.3037272 C294.213861,47.8206135 292.945502,49.0790378 290.408746,49.0790378 L286.05016,49.0790378 C283.513404,49.0790378 282.245045,47.8206135 282.245045,45.3037272 L282.245045,3.7753106 Z" id="Path"></path>
                </g>
            </g>
        </g>
    </g>
</svg>
