<svg xmlns="http://www.w3.org/2000/svg" width="20" height="20" viewBox="0 0 20 20">
  <path fill="#FFF" fill-rule="evenodd" d="M8.4,7 L13.7,1.7 C14.1,1.3 14.1,0.7 13.7,0.3 C13.3,-0.1 12.7,-0.1 12.3,0.3 L7,5.6 L1.7,0.3 C1.3,-0.1 0.7,-0.1 0.3,0.3 C-0.1,0.7 -0.1,1.3 0.3,1.7 L5.6,7 L0.3,12.3 C-0.1,12.7 -0.1,13.3 0.3,13.7 C0.5,13.9 0.7,14 1,14 C1.3,14 1.5,13.9 1.7,13.7 L7,8.4 L12.3,13.7 C12.5,13.9 12.8,14 13,14 C13.2,14 13.5,13.9 13.7,13.7 C14.1,13.3 14.1,12.7 13.7,12.3 L8.4,7 Z" transform="translate(3 3)"/>
</svg>
